<?xml version="1.0" encoding="utf-8"?>
<!-- Generator: Adobe Illustrator 23.0.1, SVG Export Plug-In . SVG Version: 6.00 Build 0)  -->
<svg version="1.1" id="Layer_1" xmlns="http://www.w3.org/2000/svg" xmlns:xlink="http://www.w3.org/1999/xlink" x="0px" y="0px"
	 viewBox="0 0 479.17 538.54" style="enable-background:new 0 0 479.17 538.54;" xml:space="preserve">
<style type="text/css">
	.st0{fill:#343E4A;}
	.st1{fill:#AD7251;}
	.st2{fill:#AD7251;stroke:#AD7251;stroke-miterlimit:10;}
</style>
<g>
	<g>
		<g>
			<path class="st0" d="M263.29,292.19h-2.8v-2.37c0-0.44-0.41-0.79-0.92-0.79h-4.58V267.7c0-0.44-0.41-0.79-0.92-0.79h-1.36v-37.63
				c0-0.44-0.41-0.79-0.92-0.79h-1.79V191.1c0-0.44-0.41-0.79-0.92-0.79h-3.72v-44.83c0-0.44-0.41-0.79-0.92-0.79h-2.83V113.1v-3.07
				v-5.53c0-0.44-0.41-0.79-0.92-0.79h-2.46V52.78h-1.85V78.2h-4.19c-0.51,0-0.92,0.35-0.92,0.79v24.71h-2.46
				c-0.51,0-0.92,0.35-0.92,0.79v5.53v3.07v23.57h-3.45c-0.51,0-0.92,0.35-0.92,0.79v28.09h-2.41c-0.51,0-0.92,0.35-0.92,0.79v38
				h-1.5c-0.51,0-0.92,0.35-0.92,0.79v38.36h-2.64c-0.51,0-0.92,0.35-0.92,0.79v44.75h-5.21c-0.51,0-0.92,0.35-0.92,0.79v2.37h-2.8
				c-0.51,0-0.92,0.35-0.92,0.79v7.43c0,0.44,0.41,0.79,0.92,0.79h58.04c0.51,0,0.92-0.35,0.92-0.79v-7.43
				C264.22,292.55,263.8,292.19,263.29,292.19z M231.78,250.08v-2.28h19.07v2.28H231.78z M216.03,247.79h13.9v2.28h-13.9V247.79z
				 M242.5,228.49v1.58h8.35v1.78h-2.83v0.79h2.83v3.07h-2.83v1.58h2.83v2.98h-2.83v0.79h2.83v3.07h-2.83v1.58h2.83v1.3h-5.29
				v-11.13h-1.85V247h-11.94v-35.22h4.59v21.97h1.85v-21.97h9.93v16.71H242.5z M219.6,208.71h10.33v2.28H219.6V208.71z
				 M231.78,208.71h4.59v2.28h-4.59V208.71z M248.14,210.99h-9.93v-2.28h9.93V210.99z M248.14,207.92h-9.93v-16.03h9.93V207.92z
				 M229.73,110.82h10.03v1.49h-10.03V110.82z M239.75,105.29v3.95h-1.53v-3.95H239.75z M236.37,103.71h-0.69V79.78h0.69V103.71z
				 M233.11,79.78h1.65v23.92h-1.65V79.78z M236.37,105.29v3.95h-6.65v-3.95H236.37z M229.73,113.89h10.03v30.79h-5.08v-7.22
				c0-0.44-0.41-0.79-0.92-0.79h-4.02V113.89z M232.83,167.13v1.8h-10.81v-1.8H232.83z M222.02,169.72h10.81V172h-10.81V169.72z
				 M222.02,198.61h5.93v-0.79h-5.93v-2.63h5.93v-1.58h-5.93v-2.14h5.93v-0.79h-5.93v-2.63h5.93v-1.58h-5.93v-2.14h5.93v-0.79h-5.93
				v-2.63h5.93v-1.58h-5.93v-2.63h5.93v-0.79h-5.93v-3.14h10.81v7.41h1.85v-13.86c0-0.44-0.41-0.79-0.92-0.79h-8.4v-27.3h7.47v13.89
				h1.85v-5.88h8.83v6.53h-2.83v0.79h2.83v3.07h-2.83v1.58h2.83v2.98h-2.83v0.79h2.83v3.07h-2.83v1.58h2.83v2.98h-2.83v0.79h2.83
				v3.07h-2.83v1.58h2.83v2.98h-2.83v0.79h2.83v3.07h-2.83v1.58h2.83v6.82h-6.21c-0.51,0-0.92,0.35-0.92,0.79v16.82h-4.59v-2.79
				c0-0.44-0.41-0.79-0.92-0.79h-8.83V198.61z M229.93,205.92v2H219.6v-2H229.93z M226.01,245.07v-1.58h-6.42v-18.61h6.28v-1.58
				h-6.28v-2.85h6.28v-1.58h-6.28v-2.85h6.28v-1.58h-6.28v-2.66h10.33V247h-13.9v-1.93H226.01z M216.03,250.87h13.9v11.5h1.85v-11.5
				h11.94v11.5h1.85v-11.5h5.29v16.05h-9.92c-0.51,0-0.92,0.35-0.92,0.79v9.67h1.85v-8.88h11.28v3.02h-5.64v1.58h5.64v3.16h-5.64
				v0.79h5.64v1.87h-5.64v1.58h5.64v3.16h-5.64v0.79h5.64v4.59h-12.2h-2.56v-4.99h-0.92v4.99h-2.72v-9.33h-0.92v9.33h-2.49v-21.98
				h-0.92v21.98h-2.16h-1.44v-33.48h-1.85v33.48h-1.5v-21.98h-0.92v21.98h-1.15v-33.48h-1.85v33.48h-1.58v-21.98h-0.92v21.98h-1
				V250.87z M209.9,290.61h5.21h13.13h12.7h13.13h4.58v1.58H209.9V290.61z M208.98,293.77h50.59h2.8v1.26h-56.19v-1.26H208.98z
				 M206.17,299.62v-3.8h56.19v3.8H206.17z"/>
			<rect x="242.04" y="195.11" class="st0" width="0.92" height="9.04"/>
			<rect x="228.34" y="141.94" class="st0" width="0.92" height="19.23"/>
			<rect x="232.45" y="116.15" class="st0" width="4.58" height="1.58"/>
			<rect x="232.45" y="120.27" class="st0" width="4.58" height="0.79"/>
			<rect x="232.45" y="123.6" class="st0" width="4.58" height="1.58"/>
			<rect x="233.29" y="181.99" class="st0" width="0.92" height="14.36"/>
			<rect x="233.29" y="153.19" class="st0" width="0.92" height="3.16"/>
			<rect x="226.96" y="141.94" class="st0" width="0.92" height="19.23"/>
			<rect x="232.45" y="127.36" class="st0" width="4.58" height="0.79"/>
			<rect x="236.83" y="46.93" class="st0" width="0.92" height="3.72"/>
			<rect x="243.97" y="195.11" class="st0" width="0.92" height="9.04"/>
			<rect x="236.83" y="235.88" class="st0" width="0.92" height="5.41"/>
		</g>
	</g>
	<path class="st0" d="M56.35,361.06c-2.28,0-4.21,0.15-6.1-0.08c-0.69-0.08-1.46-0.92-1.89-1.6c-11.44-18.3-19.81-37.94-25.61-58.72
		c-6.71-24.05-8.85-48.58-7.44-73.38c1.61-28.33,8.61-55.41,20.7-81.13c14.16-30.1,33.99-55.85,59.52-77.17
		c27.15-22.66,57.94-38.14,92.35-46.32c22.55-5.36,45.4-6.89,68.49-5.33c29.05,1.96,56.6,9.54,82.65,22.43
		c27.75,13.73,51.65,32.46,71.76,56.04c21.63,25.38,36.79,54.18,45.68,86.29c6.17,22.26,8.43,44.96,7.65,68.02
		c-0.98,29.34-7.56,57.38-19.81,84.02c-3.96,8.61-8.87,16.79-13.3,25.19c-0.75,1.42-1.76,1.94-3.33,1.82
		c-1.44-0.11-2.89-0.02-4.74-0.02c32.07-51.42,43.02-106.6,30.36-165.64c-12.69-59.17-45.09-105.46-95.85-138.21
		C277.19,5.48,176.42,13.73,106.52,67.91c-45,34.88-72.86,80.6-82.41,136.71C14.59,260.57,25.86,312.72,56.35,361.06z"/>
	<path class="st1" d="M63.49,361.18c-0.56-0.51-1.26-0.94-1.67-1.55c-9.53-14.24-17.16-29.45-23.04-45.53
		c-6.18-16.94-10.15-34.4-11.73-52.35c-1.24-14.03-1.21-28.08,0.19-42.12c3.28-32.97,13.81-63.46,31.35-91.51
		c16.03-25.64,36.65-46.9,61.76-63.8c20.19-13.59,42.01-23.59,65.57-29.67c18.02-4.65,36.34-6.72,54.99-6.64
		c38.69,0.17,74.67,10.04,107.8,29.85c39.78,23.79,68.96,57.14,87.37,99.69c13.5,31.19,18.74,63.93,16.63,97.79
		c-2,32.18-11.01,62.38-26.85,90.49c-2.63,4.66-5.55,9.16-8.39,13.71c-0.4,0.65-1.08,1.12-1.92,1.5
		c33.71-52.55,44.86-109.26,30.04-169.97C430.75,130.3,395.07,84.49,340.21,54.68C260.6,11.42,160.84,23.28,93.63,87.5
		c-37.45,35.78-59.38,79.58-64.87,131.22c-5.48,51.49,6.74,98.75,35.17,141.91C63.78,360.82,63.63,361,63.49,361.18z"/>
	<polygon class="st0" points="177.57,373.04 233.6,319.93 248.89,318.42 248.89,310.28 260.39,310.28 260.39,330.52 261.5,330.52 
		264.86,327.21 264.86,317.39 334.68,307.84 371.61,352.74 335.44,314.98 334.53,314.98 279.55,373.04 	"/>
	<polygon class="st0" points="193.07,325.67 156.21,286.83 155.46,286.83 92.75,352.61 155.29,299.38 156.59,299.38 	"/>
	<polygon class="st1" points="111.4,322.08 155.92,267.53 245.49,279.28 245.49,290.43 249.32,295.13 250.52,295.13 250.52,270.58 
		264.86,270.58 264.86,280.49 284.15,282.38 307.19,304.64 267.23,310.11 267.23,302.96 241.87,302.96 241.87,311.98 229.58,312.87 
		210.26,331.81 156.44,275.92 155.48,275.92 	"/>
	<g>
		<g>
			<polygon class="st1" points="252.86,207.89 252.86,263.22 270.51,263.22 270.51,273.91 275.48,273.91 275.48,194.78 
				270.71,197.86 270.71,231.95 267.79,231.95 267.79,199.43 260.01,204.06 260.01,257.06 257.93,257.06 257.93,205.13 			"/>
			<path class="st1" d="M331.96,300.34h4.91l-0.6-79.06l-46.85-33.63h-1.46l-8.44,5.08v82.19l6.07,0.66l33.99,26.84l6.77-0.86
				l-37.83-26.47v-4.99L331.96,300.34z M331.92,295.04l-42.94-30.26v-4.54l42.94,30.03V295.04z M288.68,196.55l42.94,30.03v4.77
				l-42.94-30.26V196.55z M288.68,207.17l42.94,30.03v4.77l-42.94-30.26V207.17z M288.68,217.91l42.94,30.03v4.77l-42.94-30.26
				V217.91z M288.68,228.16l42.94,30.03v4.77l-42.94-30.26V228.16z M288.68,239.12l42.94,30.03v4.77l-42.94-30.26V239.12z
				 M288.68,249.17l42.94,30.03v4.77l-42.94-30.26V249.17z"/>
		</g>
	</g>
	<g>
		<g>
			<polygon class="st1" points="214.18,160.7 214.18,171.76 182.75,158.8 178.19,161.43 178.19,153.2 143.32,173.3 179.09,146.37 
							"/>
			<polygon class="st1" points="214.18,179.76 214.18,190.82 182.75,177.86 178.19,180.49 178.19,172.26 143.32,192.36 
				179.09,165.43 			"/>
			<polygon class="st1" points="214.18,199.56 214.18,210.63 182.75,197.67 178.19,200.3 178.19,192.07 143.32,212.17 
				179.09,185.24 			"/>
			<polygon class="st1" points="214.18,218.77 214.18,229.83 182.75,216.87 178.19,219.5 178.19,211.28 143.32,231.37 
				179.09,204.44 			"/>
			<polygon class="st1" points="214.18,238.43 214.18,249.5 182.75,236.54 178.19,239.16 178.19,230.94 143.32,251.03 
				179.09,224.11 			"/>
			<polygon class="st1" points="214.18,257.38 214.18,268.45 182.75,255.48 178.19,258.11 178.19,249.89 143.32,269.98 
				179.09,243.05 			"/>
		</g>
	</g>
	<rect x="157.85" y="338.01" class="st0" width="9.8" height="9.8"/>
	<rect x="143.69" y="338.01" class="st0" width="9.8" height="9.8"/>
	<path class="st0" d="M153.5,333.41h-9.8V323c0-1.28,1.04-2.32,2.32-2.32h7.48V333.41z"/>
	<path class="st0" d="M157.85,333.41h9.8V323c0-1.28-1.04-2.32-2.32-2.32h-7.48V333.41z"/>
	<rect x="337" y="365.94" class="st1" width="8.01" height="8.01"/>
	<rect x="325.43" y="365.94" class="st1" width="8.01" height="8.01"/>
	<path class="st1" d="M333.45,362.18h-8.01v-8.51c0-1.05,0.85-1.9,1.9-1.9h6.12V362.18z"/>
	<path class="st1" d="M337,362.18h8.01v-8.51c0-1.05-0.85-1.9-1.9-1.9H337V362.18z"/>
	<polygon class="st1" points="304.39,354.81 335.05,323.72 386.38,377 334.96,333.54 	"/>
	<path class="st0" d="M42.82,370.41c7.57,0.1,15.14,0.2,22.77,0.3c2.75-7.06,5.5-14.15,8.25-21.23c0.04,0.01,0.09,0.01,0.13,0.02
		c-0.33,10.69-0.66,21.39-0.99,32.16c-10.12-3.73-20.15-7.42-30.19-11.12C42.8,370.49,42.81,370.45,42.82,370.41z"/>
	<path class="st1" d="M51.55,384.07c7.57,0.1,15.14,0.2,22.77,0.3c2.75-7.06,5.5-14.15,8.25-21.23c0.04,0.01,0.09,0.01,0.13,0.02
		c-0.33,10.7-0.66,21.39-0.99,32.17c-10.12-3.73-20.15-7.42-30.19-11.12C51.53,384.16,51.54,384.11,51.55,384.07z"/>
	<g>
		<path class="st2" d="M163.04,465.69l0.19,0.22c-4.43,4.26-10.5,6.4-18.19,6.4c-3.58,0-7.05-0.55-10.41-1.66
			c-3.26,0.96-6.75,1.44-10.47,1.44c-3.39,0-5.58-0.18-6.59-0.55c-1-0.37-1.51-0.85-1.51-1.46c0-1.63,2.08-2.45,6.24-2.45
			c4.66,0,9.28,0.76,13.86,2.27c6.04-1.8,12.09-7.43,18.16-16.92c-3.51,0.86-7.07,1.29-10.66,1.29c-4.73,0-8.08-0.91-10.05-2.73
			c-1.98-1.82-2.96-3.96-2.96-6.43c0-5.14,2.89-9.32,8.67-12.53c5.78-3.21,12.6-4.81,20.46-4.81c1.32,0,2.72,0.06,4.2,0.19
			l-0.03,0.31c-1.28-0.13-2.63-0.19-4.08-0.19c-4.52,0-9.15,0.76-13.89,2.29s-8.38,3.78-10.91,6.75c-2.53,2.98-3.79,5.92-3.79,8.82
			c0,2.13,0.98,4,2.95,5.61s5.17,2.41,9.6,2.41c3.41,0,7-0.43,10.76-1.28c4.49-7.36,9.59-13.07,15.3-17.12
			c5.71-4.06,10.17-6.08,13.39-6.08c1.11,0,2.01,0.31,2.7,0.92c0.69,0.62,1.03,1.41,1.03,2.37c0,3.03-3.16,6.64-9.47,10.84
			c-6.31,4.19-12.9,7.06-19.76,8.61c-2.63,3.76-4.57,6.39-5.82,7.88c-1.24,1.49-2.74,2.96-4.5,4.39s-3.42,2.56-5,3.4
			c-1.58,0.83-3.46,1.55-5.63,2.13c3.97,1.12,7.31,1.68,10,1.68c2.36,0,4.92-0.35,7.67-1.05
			C157.24,469.93,160.09,468.29,163.04,465.69z M133.91,470.48c-4.81-1.55-8.8-2.32-11.98-2.32c-3.62,0-5.43,0.63-5.43,1.9
			c0,0.46,0.43,0.87,1.3,1.2c0.87,0.34,2.99,0.51,6.38,0.51C128.24,471.77,131.48,471.34,133.91,470.48z M158.04,451.92
			c7.89-1.98,14.63-5.04,20.24-9.16s8.41-7.53,8.41-10.23c0-0.77-0.33-1.42-1-1.96c-0.67-0.53-1.48-0.8-2.42-0.8
			c-2.16,0-4.76,0.93-7.83,2.79c-3.06,1.86-6.25,4.67-9.55,8.44C162.58,444.77,159.96,448.41,158.04,451.92z"/>
		<path class="st2" d="M175.71,465.69l0.22,0.22c-2.5,2.22-4.79,3.82-6.85,4.81c-2.07,0.99-3.71,1.49-4.94,1.49
			c-1.71,0-2.57-0.88-2.57-2.63c0-2.36,1.62-4.59,4.85-6.68c3.23-2.09,5.75-3.14,7.57-3.14c0.33,0,0.62,0.09,0.86,0.28
			c0.24,0.19,0.36,0.42,0.36,0.69c0,1.02-1.02,2.1-3.05,3.23c-2.03,1.13-4.29,1.83-6.76,2.1c-2.14,2.13-3.21,3.6-3.21,4.39
			c0,0.38,0.19,0.73,0.56,1.05s0.82,0.49,1.32,0.49c1.09,0,2.63-0.48,4.63-1.43C170.7,469.61,173.03,467.99,175.71,465.69z
			 M165.87,465.75c0.63,0,1.74-0.27,3.33-0.82c1.59-0.55,2.92-1.25,3.98-2.11c1.06-0.86,1.59-1.58,1.59-2.14
			c0-0.4-0.23-0.6-0.69-0.6c-0.55,0-1.15,0.17-1.81,0.5c-0.66,0.34-1.66,1.03-3,2.07C167.93,463.68,166.79,464.72,165.87,465.75z"/>
		<path class="st0" d="M287.66,475.58c-1.71,0-3.4-0.4-5.08-1.19c-1.68-0.79-3.25-1.95-4.71-3.48c-2.13-2.2-3.98-4.83-5.53-7.91
			c-1.55-3.08-2.88-6.25-3.98-9.51c-1.1-3.26-1.95-6.25-2.56-8.96c-0.61-2.71-1.04-4.8-1.28-6.27c-2.26,4.33-4.59,8.61-7,12.85
			c-2.41,4.24-5.47,8.4-9.19,12.49c-3.54,3.84-7.41,6.75-11.62,8.74c-4.21,1.98-8.57,2.97-13.08,2.97c-1.4,0-2.84-0.09-4.3-0.27
			c-4.02-0.49-6.98-1.65-8.87-3.48c-1.89-1.83-2.84-3.78-2.84-5.85c0-2.26,1.01-4.3,3.02-6.13c2.01-1.83,4.88-2.74,8.6-2.74
			c1.22,0,2.53,0.12,3.93,0.37c1.4,0.24,2.87,0.64,4.39,1.19c0.67,0.24,1.01,0.52,1.01,0.82c0,0.24-0.24,0.37-0.73,0.37
			c-0.31,0-0.55-0.03-0.73-0.09c-2.01-0.73-3.81-1.1-5.4-1.1c-2.56,0-4.51,0.75-5.85,2.24c-1.34,1.5-2.01,3.13-2.01,4.89
			c0,1.71,0.73,3.29,2.2,4.76c1.46,1.46,3.72,2.2,6.77,2.2c3.84,0,7.38-0.9,10.61-2.7c3.23-1.8,6.25-4.27,9.06-7.41
			c2.8-3.14,5.49-6.71,8.05-10.7c2.56-3.99,5.06-8.16,7.5-12.49c4.08-7.26,7.79-13.86,11.12-19.8c3.32-5.95,6.84-10.99,10.57-15.14
			c-1.65-0.18-3.33-0.3-5.03-0.37c-1.71-0.06-3.45-0.09-5.21-0.09c-3.84,0-7.82,0.2-11.94,0.59c-4.12,0.4-8.1,1.02-11.94,1.88
			c-5.18,1.1-9.64,2.73-13.36,4.89c-3.72,2.17-6.66,4.57-8.83,7.23c-2.17,2.65-3.52,5.32-4.07,8c-0.18,0.98-0.27,1.92-0.27,2.84
			c0,3.11,1.04,5.52,3.11,7.23c2.07,1.71,4.45,2.56,7.14,2.56c1.71,0,3.43-0.35,5.17-1.05c1.74-0.7,3.31-1.81,4.71-3.34
			c1.16-1.22,2.01-2.36,2.56-3.43c0.55-1.07,0.85-1.88,0.91-2.42c0.06-0.85,0.24-1.28,0.55-1.28c0.18,0,0.35,0.15,0.5,0.46
			c0.15,0.31,0.2,0.61,0.14,0.91c-0.24,1.4-0.67,2.78-1.28,4.12c-0.61,1.34-1.34,2.47-2.2,3.38c-1.71,1.77-3.66,3.08-5.85,3.93
			c-2.2,0.86-4.3,1.28-6.31,1.28c-2.38,0-4.62-0.52-6.72-1.56c-2.1-1.04-3.8-2.54-5.08-4.53c-1.28-1.98-1.92-4.44-1.92-7.36
			c0-3.42,1.19-6.91,3.57-10.47c2.38-3.57,5.96-6.72,10.75-9.47c4.79-2.74,10.75-4.63,17.88-5.67c3.6-0.49,7.09-0.87,10.47-1.14
			c3.38-0.27,6.66-0.41,9.83-0.41c2.56,0,5.06,0.09,7.5,0.27c2.44,0.18,4.85,0.43,7.23,0.73c1.58-1.65,2.65-2.47,3.2-2.47
			c0.43,0,0.64,0.34,0.64,1.01c0,0.24-0.03,0.55-0.09,0.91c-0.06,0.37-0.15,0.73-0.27,1.1c1.65,0.24,3.25,0.5,4.8,0.78
			c1.56,0.27,2.94,0.59,4.16,0.96c4.82,1.34,8.34,3.1,10.57,5.26c2.23,2.17,3.34,4.5,3.34,7c0,2.68-1.21,5.37-3.61,8.05
			s-5.79,5.06-10.15,7.13c-4.36,2.07-9.47,3.6-15.32,4.57c-1.89,0.31-3.55,0.52-4.99,0.64c-1.43,0.12-2.67,0.21-3.7,0.27
			c0.12,0.61,0.4,1.89,0.82,3.84c0.43,1.95,1.04,4.25,1.83,6.91c0.79,2.65,1.81,5.44,3.06,8.37c1.25,2.93,2.76,5.7,4.53,8.33
			c1.4,2.07,2.84,3.78,4.3,5.12c1.46,1.34,3.02,2.01,4.67,2.01c1.04,0,2.12-0.27,3.25-0.82c1.13-0.55,2.3-1.43,3.52-2.65
			c1.46-1.46,2.79-3.12,3.98-4.99c1.19-1.86,2.21-3.61,3.07-5.26c0.85-1.65,1.43-2.8,1.74-3.48c0.49-0.85,1.01-1.28,1.56-1.28
			c0.18,0,0.27,0.12,0.27,0.37c0,0.12-0.09,0.43-0.27,0.91c-0.31,0.67-0.76,1.69-1.37,3.07c-0.61,1.37-1.34,2.88-2.2,4.53
			c-0.86,1.65-1.77,3.26-2.75,4.85c-0.98,1.59-1.95,2.93-2.93,4.03c-1.4,1.52-2.97,2.67-4.71,3.43
			C290.91,475.2,289.25,475.58,287.66,475.58z M266.44,434.69c1.77-0.3,3.66-0.52,5.67-0.64c2.01-0.12,3.99-0.3,5.95-0.55
			c3.17-0.43,6.16-1.27,8.96-2.52c2.8-1.25,5.29-2.76,7.46-4.53c2.16-1.77,3.86-3.64,5.08-5.63c1.22-1.98,1.83-3.89,1.83-5.72
			c0-4.15-2.78-7.01-8.32-8.6c-1.1-0.3-2.52-0.61-4.25-0.92c-1.74-0.3-3.31-0.58-4.71-0.82c-2.93,5-5.93,9.91-9.01,14.73
			C272,424.32,269.12,429.38,266.44,434.69z"/>
		<path class="st0" d="M309.52,471.74c-2.32,0-4.03-0.78-5.12-2.33c-1.1-1.55-1.65-3.46-1.65-5.72c0-2.74,0.64-5.61,1.92-8.6
			c1.22-2.8,2.77-5.37,4.67-7.68c1.89-2.32,3.93-4.19,6.13-5.63c2.2-1.43,4.33-2.15,6.4-2.15c2.32,0,4.02,0.76,5.12,2.29
			s1.65,3.45,1.65,5.76c0,2.81-0.64,5.67-1.92,8.6c-0.73,1.65-1.77,3.46-3.11,5.44c-1.34,1.98-2.87,3.8-4.57,5.44
			c0.37,0.67,0.88,1.24,1.55,1.69c0.67,0.46,1.58,0.69,2.74,0.69c1.46,0,2.85-0.61,4.16-1.83c1.31-1.22,2.52-2.7,3.61-4.44
			s2.07-3.49,2.93-5.26c0.85-1.77,1.56-3.2,2.1-4.3c0.18-0.37,0.49-0.55,0.91-0.55c0.24,0,0.43,0.11,0.55,0.32
			c0.12,0.21,0.09,0.54-0.09,0.96c-0.37,0.92-0.98,2.27-1.83,4.07c-0.85,1.8-1.89,3.66-3.11,5.58c-1.22,1.92-2.62,3.55-4.21,4.89
			c-1.59,1.34-3.35,2.01-5.31,2.01c-1.34,0-2.5-0.23-3.48-0.69c-0.98-0.46-1.77-1.02-2.38-1.69c-1.28,0.98-2.56,1.74-3.84,2.29
			S310.8,471.74,309.52,471.74z M310.9,469.73c1.65,0,3.41-0.79,5.31-2.38c-0.49-0.73-0.85-1.49-1.1-2.29
			c-0.24-0.79-0.37-1.52-0.37-2.2c0-1.1,0.26-2.04,0.78-2.84c0.52-0.79,1.33-1.19,2.42-1.19c0.79,0,1.45,0.29,1.97,0.87
			c0.52,0.58,0.78,1.24,0.78,1.97c0,0.18-0.02,0.35-0.05,0.5c-0.03,0.15-0.08,0.32-0.14,0.5c1.04-1.4,2.01-3.05,2.93-4.94
			c2.01-4.33,3.02-7.9,3.02-10.7c0-1.4-0.27-2.5-0.82-3.29c-0.55-0.79-1.37-1.19-2.47-1.19c-1.28,0-2.67,0.55-4.16,1.65
			c-1.5,1.1-2.93,2.56-4.3,4.39c-1.37,1.83-2.58,3.87-3.61,6.13c-0.98,2.07-1.75,4.07-2.33,5.99c-0.58,1.92-0.87,3.58-0.87,4.99
			c0,1.22,0.24,2.2,0.73,2.93C309.1,469.36,309.86,469.73,310.9,469.73z"/>
		<path class="st0" d="M337.88,472.11c-2.99,0-5.11-0.78-6.36-2.33s-1.88-3.19-1.88-4.89c0-1.4,0.35-2.68,1.05-3.84
			c0.7-1.16,1.54-1.77,2.52-1.83c1.22-2.38,2.55-4.97,3.98-7.78c1.43-2.8,2.76-5.52,3.98-8.14c0.85-1.77,1.93-3.48,3.25-5.12
			c1.31-1.65,2.76-2.59,4.35-2.84h0.91c0.49,0,0.93,0.03,1.33,0.09c0.4,0.06,0.81,0.18,1.24,0.37c0.67,0.31,1.01,0.76,1.01,1.37
			c0,0.37-0.21,0.55-0.64,0.55c-0.18,0-0.43-0.09-0.73-0.27c-0.73-0.3-1.37-0.46-1.92-0.46c-0.37,0-0.7,0.09-1.01,0.27
			c-1.16,0.61-1.97,1.46-2.42,2.56c-0.46,1.1-0.69,2.26-0.69,3.48c0,0.98,0.11,1.97,0.32,2.97c0.21,1.01,0.47,1.91,0.78,2.7
			c0.67,1.71,1.39,3.38,2.15,5.03c0.76,1.65,1.14,3.42,1.14,5.31c0,1.83-0.61,3.77-1.83,5.81c-1.22,2.04-2.78,3.67-4.67,4.89
			l0.64,0.09c0.3,0.06,0.52,0.09,0.64,0.09c0.12,0,0.21,0,0.27,0c1.4,0,2.73-0.41,3.98-1.24c1.25-0.82,2.36-1.84,3.34-3.06
			c0.97-1.22,2.09-2.93,3.34-5.12c1.25-2.2,2.45-4.51,3.61-6.95c0.18-0.3,0.4-0.46,0.64-0.46c0.3,0,0.53,0.11,0.69,0.32
			c0.15,0.21,0.17,0.47,0.05,0.78c-0.79,1.71-1.69,3.55-2.7,5.53c-1.01,1.98-2.15,3.87-3.43,5.67s-2.76,3.26-4.44,4.39
			c-1.68,1.13-3.55,1.69-5.63,1.69c-0.49,0-1.01-0.03-1.56-0.09c-0.55-0.06-1.1-0.18-1.65-0.37c-0.61,0.24-1.23,0.44-1.88,0.59
			C339.02,472.03,338.43,472.11,337.88,472.11z M337.15,470.64c0.37,0,0.7-0.05,1.01-0.14c0.3-0.09,0.58-0.17,0.82-0.23
			c-0.91-0.67-1.72-1.57-2.42-2.7c-0.7-1.13-1.11-2.58-1.23-4.35c-1.1,1.16-1.65,2.41-1.65,3.75c0,0.98,0.3,1.83,0.92,2.56
			C335.2,470.27,336.05,470.64,337.15,470.64z M340.63,469.36c1.04-0.85,1.97-2.1,2.79-3.75s1.23-3.81,1.23-6.5
			c0-2.38-0.24-4.91-0.73-7.59c-0.49-2.68-0.73-5.06-0.73-7.13c0-0.43,0.01-0.81,0.05-1.14c0.03-0.33,0.08-0.65,0.14-0.96
			c-0.79,1.65-1.71,3.55-2.74,5.72c-1.04,2.17-2.07,4.25-3.11,6.27c-1.04,2.01-1.92,3.72-2.65,5.12c0.67,0.06,1.16,0.29,1.46,0.69
			c0.3,0.4,0.43,1.17,0.37,2.33c-0.06,1.53,0.29,2.94,1.05,4.25C338.51,467.97,339.47,468.87,340.63,469.36z"/>
		<path class="st0" d="M365.78,472.11c-2.26,0-4.29-0.73-6.08-2.2c-1.8-1.46-2.7-3.69-2.7-6.68c0-2.74,0.67-5.69,2.01-8.83
			c1.34-3.14,3.05-5.9,5.12-8.28c1.77-2.07,3.75-3.78,5.95-5.12c2.2-1.34,4.27-2.01,6.22-2.01c1.34,0,2.5,0.37,3.48,1.1
			c1.04,0.79,1.55,1.92,1.55,3.38c0,1.53-0.58,3.2-1.74,5.03c-1.16,1.83-2.81,3.54-4.94,5.12c-0.92,0.67-2.07,1.31-3.48,1.92
			c-1.4,0.61-2.81,1.11-4.21,1.51c-1.4,0.4-2.56,0.59-3.48,0.59c-0.31,0.73-0.59,1.71-0.87,2.93c-0.27,1.22-0.41,2.47-0.41,3.75
			c0,1.53,0.3,2.9,0.92,4.12c0.61,1.22,1.74,1.83,3.38,1.83c2.01,0,3.84-0.58,5.49-1.74c1.65-1.16,3.11-2.61,4.39-4.34
			c1.28-1.74,2.36-3.49,3.25-5.26c0.88-1.77,1.6-3.26,2.15-4.48c0.37-0.85,0.85-1.28,1.46-1.28c0.3,0,0.46,0.15,0.46,0.46
			c0,0.24-0.09,0.55-0.27,0.91c-0.86,1.83-1.77,3.77-2.75,5.81c-0.98,2.04-2.13,3.96-3.48,5.76c-1.34,1.8-2.94,3.25-4.8,4.35
			C370.55,471.56,368.34,472.11,365.78,472.11z M364.13,456c0.85,0,2.29-0.32,4.3-0.96c2.01-0.64,3.84-1.66,5.49-3.06
			c1.58-1.4,2.8-2.94,3.66-4.62c0.85-1.68,1.28-3.09,1.28-4.25c0-1.34-0.49-2.01-1.46-2.01c-0.73,0-1.74,0.49-3.02,1.46
			c-1.28,0.98-2.87,2.62-4.76,4.94c-1.16,1.46-2.26,3.05-3.29,4.76C365.29,453.96,364.56,455.21,364.13,456z"/>
	</g>
	<g>
		<path class="st0" d="M147.7,493.55h5.52c3.08,0,5.16,0.13,6.26,0.38c1.65,0.38,2.98,1.18,4.01,2.42c1.03,1.24,1.54,2.76,1.54,4.58
			c0,1.51-0.35,2.84-1.06,3.98c-0.71,1.14-1.72,2.01-3.04,2.59s-3.14,0.88-5.46,0.9l9.97,12.87H162l-9.97-12.87h-1.57v12.87h-2.77
			V493.55z M150.47,496.26v9.42l4.77,0.04c1.85,0,3.22-0.18,4.1-0.53c0.89-0.35,1.58-0.91,2.08-1.69s0.75-1.64,0.75-2.59
			c0-0.93-0.25-1.77-0.75-2.53c-0.5-0.76-1.16-1.3-1.98-1.63c-0.82-0.33-2.18-0.49-4.08-0.49H150.47z"/>
		<path class="st0" d="M187.79,514.47l2.22,1.17c-0.73,1.43-1.57,2.59-2.53,3.47c-0.96,0.88-2.03,1.55-3.22,2.01
			c-1.19,0.46-2.55,0.69-4.05,0.69c-3.34,0-5.96-1.1-7.85-3.29c-1.89-2.19-2.83-4.67-2.83-7.43c0-2.6,0.8-4.92,2.4-6.95
			c2.02-2.59,4.73-3.88,8.13-3.88c3.5,0,6.29,1.33,8.37,3.98c1.48,1.87,2.24,4.21,2.26,7.01h-18.45c0.05,2.38,0.81,4.33,2.28,5.86
			c1.47,1.52,3.29,2.28,5.45,2.28c1.04,0,2.06-0.18,3.05-0.54c0.99-0.36,1.83-0.84,2.52-1.45
			C186.24,516.77,186.99,515.8,187.79,514.47z M187.79,508.94c-0.35-1.41-0.86-2.53-1.54-3.37c-0.67-0.84-1.56-1.52-2.67-2.03
			c-1.11-0.52-2.27-0.77-3.49-0.77c-2.01,0-3.74,0.65-5.19,1.94c-1.06,0.94-1.86,2.36-2.4,4.24H187.79z"/>
		<path class="st0" d="M216.04,500.77v20.5h-2.6v-3.52c-1.11,1.34-2.35,2.36-3.72,3.03c-1.38,0.68-2.88,1.02-4.51,1.02
			c-2.9,0-5.38-1.05-7.43-3.16c-2.05-2.1-3.08-4.66-3.08-7.68c0-2.95,1.04-5.48,3.11-7.57c2.07-2.1,4.57-3.15,7.48-3.15
			c1.68,0,3.21,0.36,4.57,1.07s2.56,1.79,3.59,3.22v-3.77H216.04z M205.5,502.78c-1.47,0-2.82,0.36-4.07,1.08
			c-1.24,0.72-2.23,1.74-2.96,3.04c-0.73,1.3-1.1,2.68-1.1,4.14c0,1.44,0.37,2.82,1.11,4.14s1.73,2.34,2.98,3.08
			c1.25,0.73,2.59,1.1,4.02,1.1c1.44,0,2.81-0.36,4.1-1.09c1.29-0.73,2.29-1.71,2.98-2.96s1.04-2.64,1.04-4.2
			c0-2.37-0.78-4.35-2.34-5.95C209.7,503.58,207.78,502.78,205.5,502.78z"/>
		<path class="st0" d="M221.58,492.85h2.64v28.41h-2.64V492.85z"/>
		<path class="st0" d="M240.83,493.55h15.88v2.71H243.6v8.69h13v2.71h-13v10.89h13v2.71h-15.77V493.55z"/>
		<path class="st0" d="M271.38,503.01l-1.7,1.75c-1.41-1.37-2.79-2.05-4.14-2.05c-0.86,0-1.59,0.28-2.2,0.85
			c-0.61,0.57-0.92,1.22-0.92,1.98c0,0.67,0.25,1.3,0.75,1.9c0.5,0.62,1.56,1.34,3.17,2.17c1.96,1.02,3.3,2,4,2.94
			c0.69,0.96,1.04,2.03,1.04,3.22c0,1.68-0.59,3.11-1.77,4.28s-2.66,1.75-4.43,1.75c-1.18,0-2.31-0.26-3.39-0.77
			s-1.97-1.22-2.67-2.13l1.66-1.88c1.35,1.52,2.78,2.28,4.29,2.28c1.06,0,1.96-0.34,2.7-1.02c0.74-0.68,1.11-1.48,1.11-2.39
			c0-0.75-0.25-1.43-0.74-2.02c-0.49-0.58-1.6-1.31-3.32-2.19c-1.85-0.96-3.11-1.9-3.78-2.83s-1-1.99-1-3.18
			c0-1.56,0.53-2.85,1.59-3.88c1.06-1.03,2.41-1.54,4.03-1.54C267.56,500.24,269.46,501.16,271.38,503.01z"/>
		<path class="st0" d="M278.35,493.16h2.64v7.61h4.18v2.28h-4.18v18.22h-2.64v-18.22h-3.6v-2.28h3.6V493.16z"/>
		<path class="st0" d="M309.55,500.77v20.5h-2.6v-3.52c-1.11,1.34-2.35,2.36-3.72,3.03c-1.38,0.68-2.88,1.02-4.51,1.02
			c-2.9,0-5.38-1.05-7.43-3.16c-2.05-2.1-3.08-4.66-3.08-7.68c0-2.95,1.04-5.48,3.11-7.57c2.07-2.1,4.57-3.15,7.48-3.15
			c1.68,0,3.21,0.36,4.57,1.07c1.36,0.72,2.56,1.79,3.59,3.22v-3.77H309.55z M299.01,502.78c-1.47,0-2.82,0.36-4.07,1.08
			c-1.24,0.72-2.23,1.74-2.96,3.04c-0.73,1.3-1.1,2.68-1.1,4.14c0,1.44,0.37,2.82,1.11,4.14s1.73,2.34,2.98,3.08
			c1.25,0.73,2.59,1.1,4.02,1.1c1.44,0,2.81-0.36,4.1-1.09c1.29-0.73,2.29-1.71,2.98-2.96s1.04-2.64,1.04-4.2
			c0-2.37-0.78-4.35-2.34-5.95C303.21,503.58,301.29,502.78,299.01,502.78z"/>
		<path class="st0" d="M317.78,493.16h2.64v7.61h4.18v2.28h-4.18v18.22h-2.64v-18.22h-3.6v-2.28h3.6V493.16z"/>
		<path class="st0" d="M345.82,514.47l2.22,1.17c-0.73,1.43-1.57,2.59-2.53,3.47c-0.96,0.88-2.03,1.55-3.22,2.01
			s-2.55,0.69-4.05,0.69c-3.34,0-5.96-1.1-7.84-3.29c-1.89-2.19-2.83-4.67-2.83-7.43c0-2.6,0.8-4.92,2.39-6.95
			c2.02-2.59,4.73-3.88,8.13-3.88c3.5,0,6.29,1.33,8.37,3.98c1.48,1.87,2.24,4.21,2.26,7.01h-18.45c0.05,2.38,0.81,4.33,2.28,5.86
			c1.47,1.52,3.29,2.28,5.45,2.28c1.04,0,2.06-0.18,3.05-0.54c0.99-0.36,1.83-0.84,2.52-1.45
			C344.26,516.77,345.01,515.8,345.82,514.47z M345.82,508.94c-0.35-1.41-0.86-2.53-1.54-3.37c-0.67-0.84-1.56-1.52-2.67-2.03
			c-1.11-0.52-2.27-0.77-3.49-0.77c-2.01,0-3.74,0.65-5.19,1.94c-1.06,0.94-1.86,2.36-2.4,4.24H345.82z"/>
	</g>
	<g>
		<g>
			<path class="st1" d="M356.7,510.61c2.14-0.26,4.28-0.38,6.42-0.49c2.14-0.12,4.28-0.13,6.42-0.15c2.14,0.01,4.28,0.03,6.42,0.15
				c2.14,0.1,4.28,0.22,6.42,0.49c-2.14,0.26-4.28,0.39-6.42,0.49c-2.14,0.11-4.28,0.13-6.42,0.15c-2.14-0.02-4.28-0.03-6.42-0.15
				C360.98,510.99,358.84,510.87,356.7,510.61z"/>
		</g>
	</g>
	<g>
		<g>
			<path class="st1" d="M111.92,510.61c2.14-0.26,4.28-0.38,6.42-0.49c2.14-0.12,4.28-0.13,6.42-0.15c2.14,0.01,4.28,0.03,6.42,0.15
				c2.14,0.1,4.28,0.22,6.42,0.49c-2.14,0.26-4.28,0.39-6.42,0.49c-2.14,0.11-4.28,0.13-6.42,0.15c-2.14-0.02-4.28-0.03-6.42-0.15
				C116.21,510.99,114.06,510.87,111.92,510.61z"/>
		</g>
	</g>
</g>
</svg>
